# Blender 4.3.0
# www.blender.org
mtllib chimney.mtl
o Cube
v 2.500000 3.230365 -2.447607
v 2.500000 0.419820 -2.447607
v 2.500000 3.230365 2.447607
v 2.500000 0.419820 2.447607
v -0.000000 3.915331 -1.000000
v 0.000000 0.000000 -3.000000
v 0.000000 3.915331 1.000000
v 0.000000 0.000000 3.000000
v 1.740272 3.915331 -1.000000
v 2.500000 0.000000 -3.000000
v 1.740273 3.915331 1.000000
v 2.500000 0.000000 3.000000
v 0.913003 3.230365 -2.447607
v 0.913003 0.419820 -2.447607
v 0.913003 3.230365 2.447607
v 0.913003 0.419820 2.447607
v 0.879362 3.230365 -2.447607
v 0.879362 0.419820 -2.447607
v 0.879362 3.230365 2.447607
v 0.879362 0.419820 2.447607
v 2.500000 3.915331 3.000000
v 0.000000 3.915331 3.000000
v 2.500000 3.915331 -3.000000
v 0.000000 3.915331 -3.000000
v 1.740273 17.170441 1.000000
v 0.000000 17.170441 1.000000
v 1.740272 17.170441 -1.000000
v -0.000000 17.170441 -1.000000
v 2.500000 3.232762 -2.997294
v 2.500000 0.419866 -2.987390
v 2.500000 0.415469 3.002082
v 2.489578 3.241523 2.989673
vn -0.0000 -0.0000 -1.0000
vn -0.0000 -0.0000 1.0000
vn -1.0000 -0.0000 -0.0000
vn -0.0000 -1.0000 -0.0000
vn -0.0000 1.0000 -0.0000
vn 1.0000 -0.0000 -0.0000
vn -0.9310 -0.0018 0.3651
vn 0.7039 -0.0000 -0.7103
vn 0.9998 0.0038 0.0191
vn 0.9997 -0.0158 0.0195
vt 0.003107 0.002442
vt 0.665055 3.321458
vt 0.003107 3.321458
vt 0.250000 1.001698
vt 0.000000 0.751698
vt 0.250000 0.751698
vt 1.000000 1.001698
vt 0.750000 0.751698
vt 1.000000 0.751698
vt 0.375000 0.500000
vt 0.125000 0.750000
vt 0.125000 0.500000
vt 0.658956 0.179728
vt 0.320597 0.011366
vt 0.320597 0.179728
vt 0.667268 0.999832
vt 0.000231 -0.024346
vt 0.667268 -0.024346
vt 0.313112 0.000716
vt 0.313112 0.975720
vt 0.313153 0.975944
vt 0.001435 0.974924
vt 0.001692 0.674652
vt 0.001692 0.000998
vt 0.458003 0.927590
vt 0.208003 0.927590
vt 0.434986 0.921458
vt 0.460000 0.905397
vt 0.448492 0.910043
vt 0.436983 0.910361
vt 0.589729 0.726984
vt 0.589729 0.523016
vt 0.003183 -0.163384
vt 0.331813 0.808395
vt 0.003183 0.808395
vt 0.217131 0.902147
vt 0.421098 0.891295
vt 0.421098 0.902147
vt 0.313194 0.808395
vt -0.017535 -0.163384
vt 0.313194 -0.163384
vt 1.877913 0.975529
vt 0.000926 0.001207
vt 1.877913 0.001207
vt 0.476984 0.966426
vt 0.476984 0.786969
vt 0.553062 0.523016
vt 0.410271 0.726984
vt 0.553062 0.726984
vt 0.273016 0.786969
vt 0.273016 0.966426
vt 0.222728 0.915435
vt 0.459226 0.920571
vt 0.209226 0.920571
vt 0.209226 0.905995
vt 0.222728 0.911672
vt 0.799027 0.718345
vt 0.875000 0.500000
vt 0.875000 0.750000
vt 0.459226 0.905995
vt 0.383253 0.911672
vt 0.700973 0.531655
vt 0.700973 0.718345
vt 0.331570 0.171295
vt 1.000695 3.491249
vt 1.000695 0.171295
vt 0.799027 0.531655
vt 0.665280 3.322332
vt 0.002710 0.001865
vt 0.665280 0.001865
vt 0.665056 0.002442
vt 0.000000 1.001698
vt 0.750000 1.001698
vt 0.375000 0.750000
vt 0.658956 0.011366
vt 0.000231 0.999832
vt 0.002413 0.975086
vt 0.313256 0.000553
vt 0.002413 0.000732
vt 0.311350 0.000886
vt 0.311350 0.975018
vt 0.001667 0.965978
vt 0.219511 0.924524
vt 0.231019 0.921458
vt 0.446494 0.924524
vt 0.233016 0.910361
vt 0.210000 0.905397
vt 0.221508 0.910043
vt 0.331813 -0.163384
vt 0.217131 0.891295
vt -0.017535 0.808395
vt 0.000926 0.975529
vt 0.410271 0.523016
vt 0.383253 0.915435
vt 0.331570 3.491250
vt 0.002710 3.322333
s 0
usemtl Material
f 5/1/1 27/2/1 9/3/1
f 21/4/2 8/5/2 12/6/2
f 22/7/3 6/8/3 8/9/3
f 10/10/4 8/11/4 6/12/4
f 2/13/5 16/14/5 4/15/5
f 24/16/1 10/17/1 6/18/1
f 10/19/6 23/20/6 29/21/6
f 32/22/7 12/23/7 31/24/7
f 23/25/6 21/26/6 1/27/6
f 10/28/6 30/29/6 2/30/6
f 15/31/4 17/32/4 13/32/4
f 4/33/1 15/34/1 3/35/1
f 3/36/4 13/37/4 1/38/4
f 1/39/2 14/40/2 2/41/2
f 17/42/6 20/43/6 18/44/6
f 13/45/2 18/46/2 14/46/2
f 14/47/5 20/48/5 16/49/5
f 16/50/1 19/51/1 15/51/1
f 11/52/5 22/53/5 21/54/5
f 11/52/5 23/55/5 9/56/5
f 7/57/5 24/58/5 22/59/5
f 9/56/5 24/60/5 5/61/5
f 27/62/5 26/57/5 25/63/5
f 9/64/6 25/65/6 11/66/6
f 7/57/3 28/67/3 5/67/3
f 11/68/2 26/69/2 7/70/2
f 5/1/1 28/71/1 27/2/1
f 21/4/2 22/72/2 8/5/2
f 22/7/3 24/73/3 6/8/3
f 10/10/4 12/74/4 8/11/4
f 2/13/5 14/75/5 16/14/5
f 24/16/1 23/76/1 10/17/1
f 29/21/6 1/77/6 30/78/6
f 1/77/6 2/79/6 30/78/6
f 30/78/6 10/19/6 29/21/6
f 31/24/6 4/80/6 3/81/6
f 32/22/8 21/82/8 12/23/8
f 31/24/9 3/81/9 32/22/9
f 32/83/10 3/84/10 21/26/10
f 3/84/6 1/27/6 21/26/6
f 1/27/6 29/85/6 23/25/6
f 2/30/6 4/86/6 12/87/6
f 4/86/6 31/88/6 12/87/6
f 12/87/6 10/28/6 2/30/6
f 15/31/4 19/31/4 17/32/4
f 4/33/1 16/89/1 15/34/1
f 3/36/4 15/90/4 13/37/4
f 1/39/2 13/91/2 14/40/2
f 17/42/6 19/92/6 20/43/6
f 13/45/2 17/45/2 18/46/2
f 14/47/5 18/93/5 20/48/5
f 16/50/1 20/50/1 19/51/1
f 11/52/5 7/94/5 22/53/5
f 11/52/5 21/54/5 23/55/5
f 7/57/4 5/67/4 24/58/4
f 9/56/5 23/55/5 24/60/5
f 27/62/5 28/67/5 26/57/5
f 9/64/6 27/95/6 25/65/6
f 7/57/3 26/57/3 28/67/3
f 11/68/2 25/96/2 26/69/2
