# Blender 4.3.0
# www.blender.org
mtllib flashlight.mtl
o Cylinder
v 0.000000 -1.000000 3.000000
v 0.000000 -1.000000 -3.000000
v 0.195090 -0.980785 3.000000
v 0.195090 -0.980785 -3.000000
v 0.382683 -0.923879 3.000000
v 0.382683 -0.923880 -3.000000
v 0.555570 -0.831470 3.000000
v 0.555570 -0.831470 -3.000000
v 0.707107 -0.707107 3.000000
v 0.707107 -0.707107 -3.000000
v 0.831470 -0.555570 3.000000
v 0.831470 -0.555570 -3.000000
v 0.923880 -0.382683 3.000000
v 0.923880 -0.382683 -3.000000
v 0.980785 -0.195090 3.000000
v 0.980785 -0.195090 -3.000000
v 1.000000 0.000000 3.000000
v 1.000000 -0.000000 -3.000000
v 0.980785 0.195090 3.000000
v 0.980785 0.195090 -3.000000
v 0.923880 0.382683 3.000000
v 0.923880 0.382683 -3.000000
v 0.831470 0.555570 3.000000
v 0.831470 0.555570 -3.000000
v 0.707107 0.707107 3.000000
v 0.707107 0.707107 -3.000000
v 0.555570 0.831470 3.000000
v 0.555570 0.831470 -3.000000
v 0.382683 0.923880 3.000000
v 0.382683 0.923879 -3.000000
v 0.195090 0.980785 3.000000
v 0.195090 0.980785 -3.000000
v 0.000000 1.000000 3.000000
v 0.000000 1.000000 -3.000000
v -0.195090 0.980785 3.000000
v -0.195090 0.980785 -3.000000
v -0.382683 0.923880 3.000000
v -0.382683 0.923879 -3.000000
v -0.555570 0.831470 3.000000
v -0.555570 0.831470 -3.000000
v -0.707107 0.707107 3.000000
v -0.707107 0.707107 -3.000000
v -0.831470 0.555570 3.000000
v -0.831470 0.555570 -3.000000
v -0.923880 0.382683 3.000000
v -0.923880 0.382683 -3.000000
v -0.980785 0.195090 3.000000
v -0.980785 0.195090 -3.000000
v -1.000000 0.000000 3.000000
v -1.000000 -0.000000 -3.000000
v -0.980785 -0.195090 3.000000
v -0.980785 -0.195090 -3.000000
v -0.923880 -0.382683 3.000000
v -0.923880 -0.382683 -3.000000
v -0.831470 -0.555570 3.000000
v -0.831470 -0.555570 -3.000000
v -0.707107 -0.707107 3.000000
v -0.707107 -0.707107 -3.000000
v -0.555570 -0.831470 3.000000
v -0.555570 -0.831470 -3.000000
v -0.382683 -0.923879 3.000000
v -0.382683 -0.923880 -3.000000
v -0.195090 -0.980785 3.000000
v -0.195090 -0.980785 -3.000000
v 0.272745 -1.371181 -4.015063
v -0.000000 -1.398044 -4.015063
v 0.535008 -1.291625 -4.015063
v 0.776712 -1.162431 -4.015063
v 0.988566 -0.988567 -4.015063
v 1.162431 -0.776712 -4.015063
v 1.291624 -0.535009 -4.015063
v 1.371181 -0.272745 -4.015063
v 1.398044 -0.000000 -4.015063
v 1.371181 0.272745 -4.015063
v 1.291624 0.535008 -4.015063
v 1.162431 0.776712 -4.015063
v 0.988566 0.988567 -4.015063
v 0.776712 1.162431 -4.015063
v 0.535008 1.291625 -4.015063
v 0.272745 1.371181 -4.015063
v -0.000000 1.398044 -4.015063
v -0.272745 1.371181 -4.015063
v -0.535009 1.291625 -4.015063
v -0.776712 1.162431 -4.015063
v -0.988567 0.988567 -4.015063
v -1.162432 0.776712 -4.015063
v -1.291625 0.535008 -4.015063
v -1.371181 0.272745 -4.015063
v -1.398045 -0.000000 -4.015063
v -1.371181 -0.272745 -4.015063
v -1.291625 -0.535009 -4.015063
v -1.162432 -0.776712 -4.015063
v -0.988567 -0.988567 -4.015063
v -0.776712 -1.162431 -4.015063
v -0.535009 -1.291625 -4.015063
v -0.272745 -1.371181 -4.015063
v 0.224960 -1.130951 -4.749257
v -0.000000 -1.153108 -4.749257
v 0.441275 -1.065333 -4.749257
v 0.640632 -0.958774 -4.749257
v 0.815370 -0.815371 -4.749257
v 0.958774 -0.640633 -4.749257
v 1.065333 -0.441276 -4.749257
v 1.130951 -0.224960 -4.749257
v 1.153108 -0.000000 -4.749257
v 1.130951 0.224960 -4.749257
v 1.065333 0.441275 -4.749257
v 0.958774 0.640632 -4.749257
v 0.815370 0.815370 -4.749257
v 0.640632 0.958774 -4.749257
v 0.441275 1.065333 -4.749257
v 0.224960 1.130951 -4.749257
v -0.000000 1.153108 -4.749257
v -0.224960 1.130951 -4.749257
v -0.441276 1.065333 -4.749257
v -0.640633 0.958774 -4.749257
v -0.815371 0.815370 -4.749257
v -0.958774 0.640632 -4.749257
v -1.065333 0.441275 -4.749257
v -1.130952 0.224960 -4.749257
v -1.153108 -0.000000 -4.749257
v -1.130952 -0.224960 -4.749257
v -1.065333 -0.441276 -4.749257
v -0.958774 -0.640633 -4.749257
v -0.815371 -0.815371 -4.749257
v -0.640633 -0.958774 -4.749257
v -0.441276 -1.065333 -4.749257
v -0.224960 -1.130951 -4.749257
v 0.272745 -1.371181 -4.749257
v -0.000000 -1.398044 -4.749257
v 0.535008 -1.291625 -4.749257
v 0.776712 -1.162431 -4.749257
v 0.988566 -0.988567 -4.749257
v 1.162431 -0.776712 -4.749257
v 1.291624 -0.535009 -4.749257
v 1.371181 -0.272745 -4.749257
v 1.398044 -0.000000 -4.749257
v 1.371181 0.272745 -4.749257
v 1.291624 0.535008 -4.749257
v 1.162431 0.776712 -4.749257
v 0.988566 0.988567 -4.749257
v 0.776712 1.162431 -4.749257
v 0.535008 1.291624 -4.749257
v 0.272745 1.371181 -4.749257
v -0.000000 1.398044 -4.749257
v -0.272745 1.371181 -4.749257
v -0.535009 1.291624 -4.749257
v -0.776712 1.162431 -4.749257
v -0.988567 0.988567 -4.749257
v -1.162432 0.776712 -4.749257
v -1.291625 0.535008 -4.749257
v -1.371181 0.272745 -4.749257
v -1.398045 -0.000000 -4.749257
v -1.371181 -0.272745 -4.749257
v -1.291625 -0.535009 -4.749257
v -1.162432 -0.776712 -4.749257
v -0.988567 -0.988567 -4.749257
v -0.776712 -1.162431 -4.749257
v -0.535009 -1.291625 -4.749257
v -0.272745 -1.371181 -4.749257
v 0.224960 -1.130951 -3.858052
v -0.000000 -1.153108 -3.858052
v 0.441275 -1.065333 -3.858052
v 0.640632 -0.958774 -3.858052
v 0.815370 -0.815371 -3.858052
v 0.958774 -0.640633 -3.858052
v 1.065333 -0.441275 -3.858052
v 1.130951 -0.224960 -3.858052
v 1.153108 -0.000000 -3.858052
v 1.130951 0.224960 -3.858052
v 1.065333 0.441275 -3.858052
v 0.958774 0.640632 -3.858052
v 0.815370 0.815370 -3.858052
v 0.640632 0.958774 -3.858052
v 0.441275 1.065333 -3.858052
v 0.224960 1.130951 -3.858052
v -0.000000 1.153108 -3.858052
v -0.224961 1.130951 -3.858052
v -0.441276 1.065333 -3.858052
v -0.640633 0.958774 -3.858052
v -0.815371 0.815370 -3.858052
v -0.958774 0.640632 -3.858052
v -1.065333 0.441275 -3.858052
v -1.130952 0.224960 -3.858052
v -1.153108 -0.000000 -3.858052
v -1.130952 -0.224960 -3.858052
v -1.065333 -0.441275 -3.858052
v -0.958774 -0.640633 -3.858052
v -0.815371 -0.815371 -3.858052
v -0.640633 -0.958774 -3.858052
v -0.441276 -1.065333 -3.858052
v -0.224961 -1.130951 -3.858052
vn 0.0980 -0.9952 -0.0000
vn 0.2903 -0.9569 -0.0000
vn 0.4714 -0.8819 -0.0000
vn 0.6344 -0.7730 -0.0000
vn 0.7730 -0.6344 -0.0000
vn 0.8819 -0.4714 -0.0000
vn 0.9569 -0.2903 -0.0000
vn 0.9952 -0.0980 -0.0000
vn 0.9952 0.0980 -0.0000
vn 0.9569 0.2903 -0.0000
vn 0.8819 0.4714 -0.0000
vn 0.7730 0.6344 -0.0000
vn 0.6344 0.7730 -0.0000
vn 0.4714 0.8819 -0.0000
vn 0.2903 0.9569 -0.0000
vn 0.0980 0.9952 -0.0000
vn -0.0980 0.9952 -0.0000
vn -0.2903 0.9569 -0.0000
vn -0.4714 0.8819 -0.0000
vn -0.6344 0.7730 -0.0000
vn -0.7730 0.6344 -0.0000
vn -0.8819 0.4714 -0.0000
vn -0.9569 0.2903 -0.0000
vn -0.9952 0.0980 -0.0000
vn -0.9952 -0.0980 -0.0000
vn -0.9569 -0.2903 -0.0000
vn -0.8819 -0.4714 -0.0000
vn -0.7730 -0.6344 -0.0000
vn -0.6344 -0.7730 -0.0000
vn -0.4714 -0.8819 -0.0000
vn 0.8216 -0.4391 0.3635
vn -0.2903 -0.9569 -0.0000
vn -0.0980 -0.9952 -0.0000
vn -0.0000 -0.0000 1.0000
vn 0.2704 0.8915 0.3635
vn -0.9271 0.0913 0.3635
vn 0.2704 -0.8915 0.3635
vn 0.8216 0.4391 0.3635
vn -0.5910 0.7201 0.3635
vn -0.5910 -0.7201 0.3635
vn 0.8915 -0.2704 0.3635
vn 0.0913 0.9271 0.3635
vn -0.9271 -0.0913 0.3635
vn 0.4391 -0.8216 0.3635
vn 0.7201 0.5910 0.3635
vn -0.7201 0.5910 0.3635
vn -0.4391 -0.8216 0.3635
vn 0.9271 -0.0913 0.3635
vn -0.0913 0.9271 0.3635
vn -0.8915 -0.2704 0.3635
vn 0.5910 -0.7201 0.3635
vn 0.5910 0.7201 0.3635
vn -0.8216 0.4391 0.3635
vn -0.2704 -0.8915 0.3635
vn 0.9271 0.0913 0.3635
vn -0.2704 0.8915 0.3635
vn -0.8216 -0.4391 0.3635
vn 0.7201 -0.5910 0.3635
vn 0.4391 0.8216 0.3635
vn -0.8915 0.2704 0.3635
vn 0.0913 -0.9271 0.3635
vn -0.0913 -0.9271 0.3635
vn 0.8915 0.2704 0.3635
vn -0.4391 0.8216 0.3635
vn -0.7201 -0.5910 0.3635
vn -0.0000 -0.0000 -1.0000
vt 0.653614 0.500000
vt 0.653614 1.000000
vt 0.636508 1.000000
vt 0.636508 0.500000
vt 0.619402 1.000000
vt 0.619402 0.500000
vt 0.602295 1.000000
vt 0.602295 0.500000
vt 0.585189 1.000000
vt 0.585189 0.500000
vt 0.568083 1.000000
vt 0.568083 0.500000
vt 0.550977 1.000000
vt 0.550977 0.500000
vt 0.533870 1.000000
vt 0.533870 0.500000
vt 0.516764 1.000000
vt 0.516764 0.500000
vt 0.499658 1.000000
vt 0.499658 0.500000
vt 0.482551 1.000000
vt 0.482551 0.500000
vt 0.465445 1.000000
vt 0.465445 0.500000
vt 0.448339 1.000000
vt 0.448339 0.500000
vt 0.431233 1.000000
vt 0.431233 0.500000
vt 0.414126 1.000000
vt 0.414126 0.500000
vt 0.397020 1.000000
vt 0.397020 0.500000
vt 0.379914 1.000000
vt 0.379914 0.500000
vt 0.362808 1.000000
vt 0.362808 0.500000
vt 0.345701 1.000000
vt 0.345701 0.500000
vt 0.328595 1.000000
vt 0.328595 0.500000
vt 0.311489 1.000000
vt 0.311489 0.500000
vt 0.294382 1.000000
vt 0.294382 0.500000
vt 0.277276 1.000000
vt 0.277276 0.500000
vt 0.260170 1.000000
vt 0.260170 0.500000
vt 0.243064 1.000000
vt 0.243064 0.500000
vt 0.225957 1.000000
vt 0.225957 0.500000
vt 0.208851 1.000000
vt 0.208851 0.500000
vt 0.191745 1.000000
vt 0.191745 0.500000
vt 0.174638 1.000000
vt 0.174638 0.500000
vt 0.157532 1.000000
vt 0.157532 0.500000
vt 0.140426 1.000000
vt 0.140426 0.500000
vt 0.123320 1.000000
vt 0.123320 0.500000
vt 0.106213 1.000000
vt 0.106213 0.500000
vt 0.277530 0.995937
vt 0.324351 0.991325
vt 0.369374 0.977668
vt 0.410866 0.955490
vt 0.447235 0.925643
vt 0.477082 0.889274
vt 0.499261 0.847781
vt 0.512918 0.802759
vt 0.517530 0.755937
vt 0.512918 0.709115
vt 0.499261 0.664093
vt 0.477082 0.622600
vt 0.447235 0.586231
vt 0.410866 0.556384
vt 0.369374 0.534206
vt 0.324351 0.520549
vt 0.277530 0.515937
vt 0.230708 0.520549
vt 0.185686 0.534206
vt 0.144193 0.556384
vt 0.107824 0.586231
vt 0.077977 0.622600
vt 0.055799 0.664093
vt 0.042141 0.709115
vt 0.037530 0.755937
vt 0.042141 0.802759
vt 0.055799 0.847781
vt 0.077977 0.889274
vt 0.107824 0.925643
vt 0.144193 0.955490
vt 0.185686 0.977668
vt 0.230708 0.991325
vt 0.741573 0.414150
vt 0.741523 0.452769
vt 0.742157 0.938140
vt 0.740958 0.934337
vt 0.740703 0.975576
vt 0.742157 0.980188
vt 0.739805 0.923072
vt 0.739305 0.961919
vt 0.738742 0.904779
vt 0.738017 0.939741
vt 0.737811 0.880161
vt 0.736888 0.909894
vt 0.737047 0.850164
vt 0.735962 0.873525
vt 0.736479 0.815941
vt 0.735273 0.832032
vt 0.736129 0.778807
vt 0.734849 0.787010
vt 0.736011 0.740188
vt 0.734706 0.740188
vt 0.736129 0.701569
vt 0.734849 0.693366
vt 0.736479 0.664435
vt 0.735273 0.648344
vt 0.737047 0.630212
vt 0.735962 0.606851
vt 0.737811 0.600215
vt 0.736888 0.570482
vt 0.738742 0.575597
vt 0.738017 0.540635
vt 0.739805 0.557304
vt 0.739305 0.518457
vt 0.740958 0.546039
vt 0.740703 0.504799
vt 0.742157 0.542236
vt 0.742157 0.500188
vt 0.743356 0.546039
vt 0.743610 0.504799
vt 0.744508 0.557304
vt 0.745008 0.518457
vt 0.745571 0.575597
vt 0.746296 0.540635
vt 0.746502 0.600215
vt 0.747425 0.570482
vt 0.747266 0.630212
vt 0.748352 0.606851
vt 0.747834 0.664435
vt 0.749040 0.648344
vt 0.748184 0.701569
vt 0.749464 0.693366
vt 0.748302 0.740188
vt 0.749607 0.740188
vt 0.748184 0.778807
vt 0.749464 0.787010
vt 0.747834 0.815941
vt 0.749040 0.832032
vt 0.747266 0.850164
vt 0.748352 0.873525
vt 0.746502 0.880161
vt 0.747425 0.909894
vt 0.745571 0.904779
vt 0.746296 0.939741
vt 0.744508 0.923072
vt 0.745008 0.961919
vt 0.743356 0.934337
vt 0.743610 0.975576
vt 0.869933 0.792596
vt 0.862243 0.796399
vt 0.854553 0.792596
vt 0.847158 0.781331
vt 0.840343 0.763038
vt 0.834370 0.738420
vt 0.829468 0.708423
vt 0.825825 0.674200
vt 0.823582 0.637065
vt 0.822824 0.598447
vt 0.823582 0.559828
vt 0.825825 0.522694
vt 0.829468 0.488471
vt 0.834370 0.458474
vt 0.840343 0.433856
vt 0.847158 0.415563
vt 0.854553 0.404298
vt 0.862243 0.400495
vt 0.869933 0.404298
vt 0.877328 0.415563
vt 0.884143 0.433856
vt 0.890116 0.458474
vt 0.895018 0.488471
vt 0.898661 0.522694
vt 0.900904 0.559828
vt 0.901661 0.598447
vt 0.900904 0.637065
vt 0.898661 0.674200
vt 0.895018 0.708423
vt 0.890116 0.738420
vt 0.884143 0.763038
vt 0.877328 0.781331
vt 0.746678 0.414150
vt 0.746530 0.377016
vt 0.741721 0.377016
vt 0.746728 0.452769
vt 0.741961 0.342792
vt 0.746678 0.491387
vt 0.742285 0.312795
vt 0.746530 0.528522
vt 0.742679 0.288177
vt 0.746289 0.562745
vt 0.743129 0.269885
vt 0.743618 0.646917
vt 0.744125 0.650721
vt 0.745966 0.592742
vt 0.743618 0.258620
vt 0.743129 0.635652
vt 0.745571 0.617360
vt 0.744125 0.254816
vt 0.742679 0.617360
vt 0.745121 0.635653
vt 0.744633 0.258620
vt 0.742285 0.592742
vt 0.744633 0.646917
vt 0.745121 0.269885
vt 0.741961 0.562745
vt 0.745571 0.288177
vt 0.741721 0.528522
vt 0.745966 0.312795
vt 0.741573 0.491387
vt 0.746289 0.342792
s 0
f 1/1/1 2/2/1 4/3/1 3/4/1
f 3/4/2 4/3/2 6/5/2 5/6/2
f 5/6/3 6/5/3 8/7/3 7/8/3
f 7/8/4 8/7/4 10/9/4 9/10/4
f 9/10/5 10/9/5 12/11/5 11/12/5
f 11/12/6 12/11/6 14/13/6 13/14/6
f 13/14/7 14/13/7 16/15/7 15/16/7
f 15/16/8 16/15/8 18/17/8 17/18/8
f 17/18/9 18/17/9 20/19/9 19/20/9
f 19/20/10 20/19/10 22/21/10 21/22/10
f 21/22/11 22/21/11 24/23/11 23/24/11
f 23/24/12 24/23/12 26/25/12 25/26/12
f 25/26/13 26/25/13 28/27/13 27/28/13
f 27/28/14 28/27/14 30/29/14 29/30/14
f 29/30/15 30/29/15 32/31/15 31/32/15
f 31/32/16 32/31/16 34/33/16 33/34/16
f 33/34/17 34/33/17 36/35/17 35/36/17
f 35/36/18 36/35/18 38/37/18 37/38/18
f 37/38/19 38/37/19 40/39/19 39/40/19
f 39/40/20 40/39/20 42/41/20 41/42/20
f 41/42/21 42/41/21 44/43/21 43/44/21
f 43/44/22 44/43/22 46/45/22 45/46/22
f 45/46/23 46/45/23 48/47/23 47/48/23
f 47/48/24 48/47/24 50/49/24 49/50/24
f 49/50/25 50/49/25 52/51/25 51/52/25
f 51/52/26 52/51/26 54/53/26 53/54/26
f 53/54/27 54/53/27 56/55/27 55/56/27
f 55/56/28 56/55/28 58/57/28 57/58/28
f 57/58/29 58/57/29 60/59/29 59/60/29
f 59/60/30 60/59/30 62/61/30 61/62/30
f 14/13/31 12/11/31 70/11/31 71/13/31
f 61/62/32 62/61/32 64/63/32 63/64/32
f 63/64/33 64/63/33 2/65/33 1/66/33
f 1/67/34 3/68/34 5/69/34 7/70/34 9/71/34 11/72/34 13/73/34 15/74/34 17/75/34 19/76/34 21/77/34 23/78/34 25/79/34 27/80/34 29/81/34 31/82/34 33/83/34 35/84/34 37/85/34 39/86/34 41/87/34 43/88/34 45/89/34 47/90/34 49/91/34 51/92/34 53/93/34 55/94/34 57/95/34 59/96/34 61/97/34 63/98/34
f 90/51/25 89/49/25 153/49/25 154/51/25
f 32/31/35 30/29/35 79/29/35 80/31/35
f 50/49/36 48/47/36 88/47/36 89/49/36
f 6/5/37 4/3/37 65/3/37 67/5/37
f 24/23/38 22/21/38 75/21/38 76/23/38
f 42/41/39 40/39/39 84/39/39 85/41/39
f 60/59/40 58/57/40 93/57/40 94/59/40
f 16/15/41 14/13/41 71/13/41 72/15/41
f 34/33/42 32/31/42 80/31/42 81/33/42
f 52/51/43 50/49/43 89/49/43 90/51/43
f 8/7/44 6/5/44 67/5/44 68/7/44
f 26/25/45 24/23/45 76/23/45 77/25/45
f 44/43/46 42/41/46 85/41/46 86/43/46
f 62/61/47 60/59/47 94/59/47 95/61/47
f 18/17/48 16/15/48 72/15/48 73/17/48
f 36/35/49 34/33/49 81/33/49 82/35/49
f 54/53/50 52/51/50 90/51/50 91/53/50
f 10/9/51 8/7/51 68/7/51 69/9/51
f 28/27/52 26/25/52 77/25/52 78/27/52
f 46/45/53 44/43/53 86/43/53 87/45/53
f 64/63/54 62/61/54 95/61/54 96/63/54
f 20/19/55 18/17/55 73/17/55 74/19/55
f 38/37/56 36/35/56 82/35/56 83/37/56
f 56/55/57 54/53/57 91/53/57 92/55/57
f 12/11/58 10/9/58 69/9/58 70/11/58
f 30/29/59 28/27/59 78/27/59 79/29/59
f 48/47/60 46/45/60 87/45/60 88/47/60
f 4/3/61 2/2/61 66/2/61 65/3/61
f 2/65/62 64/63/62 96/63/62 66/65/62
f 22/21/63 20/19/63 74/19/63 75/21/63
f 40/39/64 38/37/64 83/37/64 84/39/64
f 58/57/65 56/55/65 92/55/65 93/57/65
f 106/99/25 105/100/25 169/100/25 170/99/25
f 77/25/12 76/23/12 140/23/12 141/25/12
f 91/53/26 90/51/26 154/51/26 155/53/26
f 78/27/13 77/25/13 141/25/13 142/27/13
f 92/55/27 91/53/27 155/53/27 156/55/27
f 79/29/14 78/27/14 142/27/14 143/29/14
f 65/3/1 66/2/1 130/2/1 129/3/1
f 93/57/28 92/55/28 156/55/28 157/57/28
f 80/31/15 79/29/15 143/29/15 144/31/15
f 67/5/2 65/3/2 129/3/2 131/5/2
f 94/59/29 93/57/29 157/57/29 158/59/29
f 81/33/16 80/31/16 144/31/16 145/33/16
f 68/7/3 67/5/3 131/5/3 132/7/3
f 95/61/30 94/59/30 158/59/30 159/61/30
f 82/35/17 81/33/17 145/33/17 146/35/17
f 69/9/4 68/7/4 132/7/4 133/9/4
f 96/63/32 95/61/32 159/61/32 160/63/32
f 83/37/18 82/35/18 146/35/18 147/37/18
f 70/11/5 69/9/5 133/9/5 134/11/5
f 66/65/33 96/63/33 160/63/33 130/65/33
f 84/39/19 83/37/19 147/37/19 148/39/19
f 71/13/6 70/11/6 134/11/6 135/13/6
f 85/41/20 84/39/20 148/39/20 149/41/20
f 72/15/7 71/13/7 135/13/7 136/15/7
f 86/43/21 85/41/21 149/41/21 150/43/21
f 73/17/8 72/15/8 136/15/8 137/17/8
f 87/45/22 86/43/22 150/43/22 151/45/22
f 74/19/9 73/17/9 137/17/9 138/19/9
f 88/47/23 87/45/23 151/45/23 152/47/23
f 75/21/10 74/19/10 138/19/10 139/21/10
f 89/49/24 88/47/24 152/47/24 153/49/24
f 76/23/11 75/21/11 139/21/11 140/23/11
f 98/101/66 97/102/66 129/103/66 130/104/66
f 97/102/66 99/105/66 131/106/66 129/103/66
f 99/105/66 100/107/66 132/108/66 131/106/66
f 100/107/66 101/109/66 133/110/66 132/108/66
f 101/109/66 102/111/66 134/112/66 133/110/66
f 102/111/66 103/113/66 135/114/66 134/112/66
f 103/113/66 104/115/66 136/116/66 135/114/66
f 104/115/66 105/117/66 137/118/66 136/116/66
f 105/117/66 106/119/66 138/120/66 137/118/66
f 106/119/66 107/121/66 139/122/66 138/120/66
f 107/121/66 108/123/66 140/124/66 139/122/66
f 108/123/66 109/125/66 141/126/66 140/124/66
f 109/125/66 110/127/66 142/128/66 141/126/66
f 110/127/66 111/129/66 143/130/66 142/128/66
f 111/129/66 112/131/66 144/132/66 143/130/66
f 112/131/66 113/133/66 145/134/66 144/132/66
f 113/133/66 114/135/66 146/136/66 145/134/66
f 114/135/66 115/137/66 147/138/66 146/136/66
f 115/137/66 116/139/66 148/140/66 147/138/66
f 116/139/66 117/141/66 149/142/66 148/140/66
f 117/141/66 118/143/66 150/144/66 149/142/66
f 118/143/66 119/145/66 151/146/66 150/144/66
f 119/145/66 120/147/66 152/148/66 151/146/66
f 120/147/66 121/149/66 153/150/66 152/148/66
f 121/149/66 122/151/66 154/152/66 153/150/66
f 122/151/66 123/153/66 155/154/66 154/152/66
f 123/153/66 124/155/66 156/156/66 155/154/66
f 124/155/66 125/157/66 157/158/66 156/156/66
f 125/157/66 126/159/66 158/160/66 157/158/66
f 126/159/66 127/161/66 159/162/66 158/160/66
f 127/161/66 128/163/66 160/164/66 159/162/66
f 128/163/66 98/101/66 130/104/66 160/164/66
f 161/165/66 162/166/66 192/167/66 191/168/66 190/169/66 189/170/66 188/171/66 187/172/66 186/173/66 185/174/66 184/175/66 183/176/66 182/177/66 181/178/66 180/179/66 179/180/66 178/181/66 177/182/66 176/183/66 175/184/66 174/185/66 173/186/66 172/187/66 171/188/66 170/189/66 169/190/66 168/191/66 167/192/66 166/193/66 165/194/66 164/195/66 163/196/66
f 120/197/7 119/198/7 183/198/7 184/197/7
f 107/199/26 106/99/26 170/99/26 171/199/26
f 121/200/8 120/197/8 184/197/8 185/200/8
f 108/201/27 107/199/27 171/199/27 172/201/27
f 122/202/9 121/200/9 185/200/9 186/202/9
f 109/203/28 108/201/28 172/201/28 173/203/28
f 123/204/10 122/202/10 186/202/10 187/204/10
f 110/205/29 109/203/29 173/203/29 174/205/29
f 124/206/11 123/204/11 187/204/11 188/206/11
f 111/207/30 110/205/30 174/205/30 175/207/30
f 97/208/17 98/209/17 162/209/17 161/208/17
f 125/210/12 124/206/12 188/206/12 189/210/12
f 112/211/32 111/207/32 175/207/32 176/211/32
f 99/212/18 97/208/18 161/208/18 163/212/18
f 126/213/13 125/210/13 189/210/13 190/213/13
f 113/214/33 112/211/33 176/211/33 177/214/33
f 100/215/19 99/212/19 163/212/19 164/215/19
f 127/216/14 126/213/14 190/213/14 191/216/14
f 114/217/1 113/214/1 177/214/1 178/217/1
f 101/218/20 100/215/20 164/215/20 165/218/20
f 128/219/15 127/216/15 191/216/15 192/219/15
f 115/220/2 114/217/2 178/217/2 179/220/2
f 102/221/21 101/218/21 165/218/21 166/221/21
f 98/209/16 128/219/16 192/219/16 162/209/16
f 116/222/3 115/220/3 179/220/3 180/222/3
f 103/223/22 102/221/22 166/221/22 167/223/22
f 117/224/4 116/222/4 180/222/4 181/224/4
f 104/225/23 103/223/23 167/223/23 168/225/23
f 118/226/5 117/224/5 181/224/5 182/226/5
f 105/100/24 104/225/24 168/225/24 169/100/24
f 119/198/6 118/226/6 182/226/6 183/198/6
