# Blender 4.3.0
# www.blender.org
mtllib wallWindowedPart.mtl
o Plane
v 0.000000 5.500000 1.700000
v 0.000000 0.000000 1.700000
v 0.000000 5.500000 -1.700000
v 0.000000 -0.000000 -1.700000
vn 1.0000 -0.0000 -0.0000
vt 0.364135 0.000000
vt 0.635865 0.000000
vt 0.635865 0.375000
vt 0.364135 0.375000
s 1
f 1/1/1 2/2/1 4/3/1 3/4/1
o Plane.002
v 0.000000 16.000000 1.699999
v 0.000000 10.450000 1.699999
v 0.000000 16.000000 -1.700001
v 0.000000 10.450000 -1.700001
vn 1.0000 -0.0000 -0.0000
vt 0.404759 0.625000
vt 0.595241 0.625000
vt 0.595241 1.000000
vt 0.404759 1.000000
s 1
f 5/5/2 6/6/2 8/7/2 7/8/2
